<svg xmlns="http://www.w3.org/2000/svg" viewBox="0 0 24 24"><defs><style>.cls-1{fill:#fff;fill-opacity:0;}.cls-2{fill:none;stroke:#444444;stroke-miterlimit:10;}.cls-3{fill:#444444;}</style></defs><g id="Ebene_2" data-name="Ebene 2"><g id="Icons"><g id="youtube"><rect id="background" class="cls-1" width="24" height="24"/><path id="Pfad_4428" data-name="Pfad 4428" class="cls-2" d="M21.58,7.15a2.52,2.52,0,0,0-1.77-1.79C18.25,4.94,12,4.94,12,4.94s-6.25,0-7.81.42A2.52,2.52,0,0,0,2.42,7.15,26.28,26.28,0,0,0,2,12a26.28,26.28,0,0,0,.42,4.85,2.52,2.52,0,0,0,1.77,1.79c1.56.42,7.81.42,7.81.42s6.25,0,7.81-.42a2.52,2.52,0,0,0,1.77-1.79A26.28,26.28,0,0,0,22,12,26.28,26.28,0,0,0,21.58,7.15Z"/><path id="Pfad_4429" data-name="Pfad 4429" class="cls-3" d="M10,15l5.2-3L10,9Z"/></g></g></g></svg>
